<svg xmlns="http://www.w3.org/2000/svg" width="35" height="35" viewBox="0 0 35 35"><defs><style>.a{fill:#a2c622;}.b{fill:#fff;fill-rule:evenodd;}</style></defs><g transform="translate(17290 -6572)"><circle class="a" cx="17.5" cy="17.5" r="17.5" transform="translate(-17290 6572)"/><g transform="translate(-17449.633 6211.833)"><path class="b" d="M167.062,416.277a3.157,3.157,0,0,1-.971-.095c-1.24-.328-2.337-.335-2.934-1.341-.2-.341-.1-.615.309-.615h3.9c-1.57-1.949-2.73-5.28-2.709-9.535,0-.479.17-.495.6-.495h14.023c.361,0,.537.011.588.287a5.962,5.962,0,0,1-.02,1.048,2.977,2.977,0,0,1,1.954.061c1.614.651,1.643,2.757.861,4.08a3.726,3.726,0,0,1-2.607,1.557c-.107.024-.216.046-.325.067a1.681,1.681,0,0,0-1.376,1.031,9.84,9.84,0,0,1-1.179,1.9h3.9c.413,0,.511.274.309.615-.6,1.007-1.694,1.013-2.934,1.341a3.158,3.158,0,0,1-.971.095Zm12.714-9.2a17.905,17.905,0,0,1-.6,3.1,2.764,2.764,0,0,1,.7-.176,4.34,4.34,0,0,0,.728-.179,1.9,1.9,0,0,0,1.332-1.685,1.489,1.489,0,0,0-.259-1.183,1.579,1.579,0,0,0-1.643-.216.417.417,0,0,0-.265.336Z" transform="translate(4.673 -27.357)"/><path class="b" d="M205.346,361.881a5.948,5.948,0,0,0-2.67,6.479c.637,2.711,2.979,5.343-.337,8.771a7.568,7.568,0,0,0,2.8-1.554,3.874,3.874,0,0,0,1.137-3.123c-.065-1.109-1.477-3.962-1.81-5.029a5.824,5.824,0,0,1,.875-5.545Z" transform="translate(-27.113)"/><path class="b" d="M212.6,369.323c-.4,1.105-.537,2.661,1.281,5.189,1.313,1.826,1.2,4.692-.08,5.8,1.73-.561,3.126-3.655,1.794-5.813C214.663,372.99,212.613,371.869,212.6,369.323Z" transform="translate(-33.237 -4.555)"/><path class="b" d="M195.982,371.924a5.22,5.22,0,0,0-.133,4.842,3.727,3.727,0,0,1-.448,4.783c.406-1.559.16-2.184-.768-3.737C193.749,376.337,193.772,374.438,195.982,371.924Z" transform="translate(-22.062 -6.147)"/></g></g></svg>